<svg xmlns="http://www.w3.org/2000/svg" viewBox="0 0 512 512" width="64" height="64">
  <defs>
    <linearGradient id="g" x1="0" y1="0" x2="1" y2="1">
      <stop offset="0" stop-color="#1d9bf0"/>
      <stop offset="1" stop-color="#0a6cb0"/>
    </linearGradient>
  </defs>
  <rect width="512" height="512" rx="112" fill="url(#g)"/>
  <path fill="#ffffff" d="M256 196c-30-58-96-104-140-104-24 0-36 16-36 52 0 30 18 110 30 130 8 14 22 18 40 18 8 0 16-1 24-3-32 9-46 30-46 52 0 30 24 49 58 49 38 0 58-26 70-55 12 29 32 55 70 55 34 0 58-19 58-49 0-22-14-43-46-52 8 2 16 3 24 3 18 0 32-4 40-18 12-20 30-100 30-130 0-36-12-52-36-52-44 0-110 46-140 104z"/>
</svg>
